<svg xmlns="http://www.w3.org/2000/svg" xmlns:xlink="http://www.w3.org/1999/xlink" width="64" zoomAndPan="magnify" viewBox="0 0 48 48" height="64" preserveAspectRatio="xMidYMid meet" version="1.0"><defs><g/><clipPath id="ea7b1a791b"><path d="M 2.960938 2.46875 L 45.039062 2.46875 L 45.039062 44.550781 L 2.960938 44.550781 Z M 2.960938 2.46875 " clip-rule="nonzero"/></clipPath><clipPath id="c0ffb374e4"><path d="M 13.980469 2.46875 L 34.019531 2.46875 C 36.941406 2.46875 39.746094 3.632812 41.8125 5.699219 C 43.878906 7.765625 45.039062 10.566406 45.039062 13.488281 L 45.039062 33.53125 C 45.039062 39.617188 40.105469 44.550781 34.019531 44.550781 L 13.980469 44.550781 C 7.894531 44.550781 2.960938 39.617188 2.960938 33.53125 L 2.960938 13.488281 C 2.960938 7.402344 7.894531 2.46875 13.980469 2.46875 Z M 13.980469 2.46875 " clip-rule="nonzero"/></clipPath></defs><g clip-path="url(#ea7b1a791b)"><g clip-path="url(#c0ffb374e4)"><path fill="#ff79c6" d="M 2.960938 2.46875 L 45.039062 2.46875 L 45.039062 44.550781 L 2.960938 44.550781 Z M 2.960938 2.46875 " fill-opacity="1" fill-rule="nonzero"/></g></g><g fill="#000000" fill-opacity="1"><g transform="translate(12.438597, 36.262786)"><g><path d="M 14.265625 -21.703125 C 12.191406 -21.703125 10.585938 -20.925781 9.453125 -19.375 C 8.328125 -17.820312 7.765625 -15.65625 7.765625 -12.875 C 7.765625 -7.101562 9.929688 -4.21875 14.265625 -4.21875 C 16.078125 -4.21875 18.28125 -4.671875 20.875 -5.578125 L 20.875 -0.96875 C 18.75 -0.0820312 16.375 0.359375 13.75 0.359375 C 9.976562 0.359375 7.09375 -0.78125 5.09375 -3.0625 C 3.101562 -5.351562 2.109375 -8.640625 2.109375 -12.921875 C 2.109375 -15.609375 2.597656 -17.960938 3.578125 -19.984375 C 4.554688 -22.015625 5.960938 -23.566406 7.796875 -24.640625 C 9.640625 -25.722656 11.796875 -26.265625 14.265625 -26.265625 C 16.773438 -26.265625 19.300781 -25.660156 21.84375 -24.453125 L 20.078125 -19.984375 C 19.109375 -20.441406 18.128906 -20.84375 17.140625 -21.1875 C 16.160156 -21.53125 15.203125 -21.703125 14.265625 -21.703125 Z M 14.265625 -21.703125 "/></g></g></g></svg>